<svg width="10" height="10" viewBox="0 0 10 10" fill="none" xmlns="http://www.w3.org/2000/svg">
<path fill-rule="evenodd" clip-rule="evenodd" d="M8.74979 0.681427C9.14179 0.681427 9.45957 0.999205 9.45957 1.3912V8.48897C9.45957 8.88097 9.14179 9.19875 8.74979 9.19875H1.65202C1.26002 9.19875 0.942245 8.88097 0.942245 8.48897V1.3912C0.942245 0.999205 1.26002 0.681427 1.65202 0.681427H8.74979ZM7.68508 7.7791C7.88108 7.7791 8.03997 7.62021 8.03997 7.42421V2.45577C8.03997 2.25977 7.88108 2.10088 7.68508 2.10088H2.71665C2.52065 2.10088 2.36176 2.25977 2.36176 2.45577V7.42421C2.36176 7.62021 2.52065 7.7791 2.71665 7.7791H7.68508Z" fill="black"/>
</svg>
